<?xml version="1.0" encoding="UTF-8"?>
<svg id="behance" xmlns="http://www.w3.org/2000/svg" version="1.1" viewBox="0 0 32.4 33.3">
  <!-- Generator: Adobe Illustrator 29.0.1, SVG Export Plug-In . SVG Version: 2.1.0 Build 192)  -->
  <defs>
    <style>
      .st0 {
        fill: #ef3f36;
      }
    </style>
  </defs>
  <path class="st0" d="M32.1,14C30.7,6.6,24.3-.6,16.3,0,9.6.2,3.6,4.7,1.2,10.9c-2.5,6.4-1,14.4,4.8,18.5,2.9,2.1,6.8,3.7,10.4,3.9,3.2.1,6.3-.9,8.9-2.6,5.5-3.7,8-10.3,6.7-16.7ZM26.4,28.3c-2.2,2-5,3.3-7.9,3.7-3.2.4-6.4-.6-9.2-2-3-1.5-5.4-3.6-6.8-6.7-1.4-3-1.6-6.5-.8-9.7C3.3,6.8,9.3,1.5,16.3,1.3c6.6-.5,12.1,4.9,14,10.8,1.9,5.7.6,12.1-3.9,16.2Z"/>
  <path class="st0" d="M17.7,10.3c.8-.4,1.3-1.2,1.3-2.1,0-.5-.2-1-.6-1.3-.4-.3-.8-.3-1.2-.4-.8,0-1.6.4-2.1,1.1-.5.8-.4,1.8.2,2.4.7.6,1.6.7,2.4.3Z"/>
  <path class="st0" d="M23.7,11.3c-1.5-.3-3.1,0-4.7,0-1.6,0-3.2,0-4.8,0-1.6,0-3.3-.3-4.8,0-.6.1-1.5.8-1.3,1.5,0,0,0,0,0,0,0,0,0,0,0,0,0,0,0,0,0,0,0,0,0,.2.2.2.9.5,1.9.6,3,.7.6,0,1.2,0,1.8,0,.3,0,.6,0,.8.1.6.3.5.9.6,1.4.1,1.5,0,2.9-.5,4.3-.4,1.3-.8,2.6-.8,4,0,.8-.1,2.3.5,3,.6.6,1.4.2,1.7-.4.3-.5.4-1.2.5-1.8.2-.8.3-1.5.5-2.3,0-.3.1-.6.2-.9,0-.2,0-.5.2-.7.2-.2.2-.3.4,0,.3.5.4,1.2.5,1.8.2,1.1.4,2.4,1,3.4.3.5,1.2,1.4,1.9,1,.7-.4.4-1.9.3-2.6-.2-1.4-.6-2.8-.9-4.1-.4-1.4-.8-2.8-.8-4.3,0-.4,0-.8.1-1.2.2-.4.5-.6,1-.7.7-.1,1.4,0,2.1-.2.7,0,2.4-.2,2.7-1.1.3-.8-.8-1.3-1.4-1.4ZM18.8,13.9c0,0,0,.2-.1.3,0,0,0-.2.1-.3Z"/>
</svg>