<svg width="38" height="38" viewBox="0 0 38 38" fill="none" xmlns="http://www.w3.org/2000/svg">
<path d="M1.25244 1.69855C0.211044 2.73995 0.211045 4.42839 1.25244 5.46978L14.9232 19.1405L0.781048 33.2826C-0.26035 34.324 -0.260349 36.0125 0.781049 37.0539C1.82245 38.0953 3.51089 38.0953 4.55229 37.0539L18.6944 22.9117L32.8365 37.0539C33.8779 38.0953 35.5664 38.0953 36.6078 37.0539C37.6492 36.0125 37.6492 34.324 36.6078 33.2826L22.4656 19.1405L36.1364 5.46976C37.1778 4.42837 37.1778 2.73993 36.1364 1.69853C35.095 0.657132 33.4065 0.65713 32.3652 1.69853L18.6944 15.3693L5.02368 1.69855C3.98228 0.65715 2.29384 0.657151 1.25244 1.69855Z" fill="#EF3F36"/>
</svg>
