<?xml version="1.0" encoding="UTF-8"?>
<svg id="Layer_2" data-name="Layer 2" xmlns="http://www.w3.org/2000/svg" viewBox="0 0 20.07 29.29">
  <defs>
    <style>
      .cls-1 {
        fill: #312f2f;
      }
    </style>
  </defs>
  <g id="Figma">
    <g>
      <path class="cls-1" d="M5.75.12C2.45-.03-.18,3.27.46,6.44c.83,4.16,5.4,4.5,8.86,4.61,2.18.07,4.4-.02,6.56-.36,1.56-.25,3-.89,3.7-2.38,1.26-2.7-.03-6.02-2.61-7.36C15.24.06,13.34-.01,11.45.01s-3.81-.09-5.69.11c-.79.09-.8,1.34,0,1.25,1.19-.13,2.41-.1,3.6-.1,1.42,0,2.87-.11,4.29.03,2.66.25,5.09,1.78,5.15,4.67.02,1.17-.36,2.39-1.44,2.98-1.4.76-3.31.73-4.85.81-1.78.09-3.58.06-5.35-.09-1.54-.14-3.3-.34-4.44-1.51C.29,5.66,2.27,1.21,5.75,1.37c.8.04.8-1.21,0-1.25h0Z"/>
      <path class="cls-1" d="M6.98,9.66c-2.5-.28-5.36.25-6.47,2.79C.12,13.31-.04,14.28,0,15.22c.08,1.79,1.39,3.18,2.99,3.79,2.19.83,4.59.47,6.88.56.33.01.63-.3.62-.62-.07-2.66-.16-5.33-.23-7.99-.02-.8-1.27-.81-1.25,0,.07,2.66.16,5.33.23,7.99l.62-.62c-1.78-.07-3.62.17-5.38-.19-1.45-.29-3.03-1.1-3.23-2.75-.18-1.46.36-3.14,1.7-3.94,1.19-.71,2.68-.69,4.01-.55.34.04.62-.31.62-.62,0-.37-.29-.59-.62-.62h0Z"/>
      <path class="cls-1" d="M6.25,18.32c-2.01-.2-3.92.95-5.09,2.52s-1.46,3.64-.59,5.47c.8,1.66,2.48,2.91,4.34,2.98s3.87-.99,4.9-2.59c.65-1.01.77-2.22.81-3.4.04-1.48-.11-2.97-.13-4.45-.01-.8-1.26-.81-1.25,0,.01,1.09.1,2.18.13,3.27.03.99.05,2.05-.21,3.02-.4,1.48-1.83,2.5-3.28,2.82s-2.96-.34-3.83-1.58c-.92-1.32-1-2.92-.2-4.31.89-1.54,2.59-2.66,4.4-2.49.8.08.79-1.17,0-1.25h0Z"/>
      <path class="cls-1" d="M13.35,9.83c-2.15.62-3.87,2.49-4.08,4.75-.19,2.11,1.12,4.26,2.97,5.23,2.02,1.05,4.39.55,5.96-1.04s2.07-3.97,1.07-6.03c-1.06-2.16-3.55-3.54-5.93-2.91-.78.21-.45,1.41.33,1.21,1.62-.43,3.3.42,4.2,1.78.95,1.44.9,3.21-.14,4.59s-2.79,2.1-4.44,1.51c-1.47-.53-2.63-2.02-2.78-3.58-.19-1.99,1.31-3.77,3.16-4.3.77-.22.44-1.43-.33-1.21h0Z"/>
    </g>
  </g>
</svg>