<svg width="420" height="133" viewBox="0 0 420 133" fill="none" xmlns="http://www.w3.org/2000/svg">
<path d="M50 47.0199C51.8525 61.8016 54.7082 82.531 57.0234 96.0562M51.0033 45.0184C50.0288 45.9904 66.6332 36.3008 68.0602 37.0125M54.0135 77.0422C59.1317 77.0422 62.6439 74.2394 67.057 72.0385M72.0736 93.0541C77.1802 87.9607 81.4285 82.2052 82.8874 74.9296C83.6571 71.0908 83.1932 79.946 83.3333 80.934C83.7882 84.1427 85.2125 87.175 87.2909 89.6627C91.0348 94.1437 90.4762 90.5296 94.1471 91.0526M83.1103 62.0312L84.1137 63.0319M101.171 91.0526C103.162 85.0943 105.212 79.1807 107.001 73.216M107.001 73.216C110.069 62.9796 112.365 52.5928 112.263 41.5716C112.242 39.3156 110.136 30.6828 107.302 37.3462C102.948 47.5837 104.454 61.5213 107.001 73.216ZM107.001 73.216C107.62 76.0611 108.301 78.7735 108.974 81.2676C110.182 85.7397 112.443 93.965 118.785 93.1653C125.173 92.3596 126.21 84.4763 127.035 79.5441C128.365 71.5817 127.712 75.8692 129.543 80.4336C130.379 82.519 131.541 84.7612 133.166 86.3825C135.655 88.8653 135.248 86.5584 137.291 86.0489M128.261 59.0288C128.78 59.0288 128.957 59.7232 129.264 60.0296M142.308 72.0386C142.308 79.3575 143.708 86.8311 145.191 94.2138M145.191 94.2138C146.03 98.3931 146.895 102.543 147.547 106.62C147.981 109.329 148.076 109.877 148.272 112.124C148.407 113.674 148.294 112.802 148.105 111.623C147.176 105.83 146.072 100.032 145.191 94.2138ZM145.191 94.2138C144.921 92.4349 144.672 90.654 144.456 88.8709M144.456 88.8709C144.321 87.7644 144.199 86.657 144.091 85.5486C143.661 81.0945 145.655 56.5262 155.909 63.5879C164.635 69.5975 147.589 84.9708 144.456 88.8709ZM144.456 88.8709C144.405 88.934 144.358 88.9941 144.314 89.0511M174.415 64.0324C174.415 59.6482 172.897 59.5985 168.506 60.0851C162.239 60.7796 158.875 79.7249 167.057 80.7114C173.164 81.4478 175.787 73.5368 176.7 68.9805C176.777 68.5981 176.792 68.0022 176.773 67.3638M176.773 67.3638C176.722 65.6312 176.421 63.5855 176.421 64.644C176.421 65.5259 176.555 66.4435 176.773 67.3638ZM176.773 67.3638C177.245 69.3538 178.111 71.3564 178.874 73.0391C179.994 75.5087 181.649 79.2921 184.448 80.3779C187.421 81.5309 188.542 78.3231 190.468 77.0421M188.462 41.0155C193.61 44.0966 193.478 49.665 193.478 55.0259M210.535 55.0259C204.36 55.0259 200.239 61.093 205.63 65.9229C209.522 69.4102 218.951 75.5605 214.158 81.9347C211.496 85.4753 203.512 87.6798 203.512 82.0459M263.712 28.006C263.712 41.524 265.269 55.0898 265.942 68.5916C266.095 71.6568 267.726 91.1489 267.726 78.043M238.629 36.0118C246.181 36.0118 256.454 29.8567 263.322 27.1164C269.737 24.5572 275.897 20.9802 282.776 20M277.759 61.0303C273.221 65.5564 279.343 88.784 287.681 82.5462C292.321 79.0758 292.417 71.4317 289.131 67.2016C286.194 63.4228 281.281 61.9562 277.759 59.0288M294.816 63.0317C296.158 67.0477 297.001 71.2351 298.439 75.2074C298.797 76.1951 301.843 84.994 303.623 83.1577C305.681 81.0343 306.423 75.4567 306.745 72.65C306.833 71.8748 306.383 67.4281 307.581 70.0925C309.283 73.8796 311.37 78.3197 314.883 80.8227C322.499 86.2484 321.408 61.0032 321.906 57.0273M329.933 63.0318C329.933 65.3662 329.846 67.7117 330.1 70.037C330.507 73.7546 331.099 84.2788 332.776 80.9339C334.148 78.1963 333.215 73.061 333.946 69.9258C334.713 66.6386 338.357 58.4191 341.862 64.1438C345.372 69.878 345.497 79.556 350 84.0474" stroke="#132FBA" stroke-width="4" stroke-linecap="round" stroke-linejoin="round"/>
<path d="M359.846 31.9328C359.846 28.5134 363.808 15.4828 368.83 21.6207C373.321 27.1098 362.586 42.1386 361.252 48.8073M358.44 31.9329C358.44 26.9178 349.826 20.8503 350.003 28.808C350.084 32.4682 360.33 52.5418 361.252 51.6198" stroke="#1E1E1E" stroke-width="4" stroke-linecap="round" stroke-linejoin="round"/>
</svg>
