<svg width="509" height="119" viewBox="0 0 509 119" fill="none" xmlns="http://www.w3.org/2000/svg">
<path d="M147.416 58.735C147.416 64.7545 149.256 90.0874 159.385 76.6643C162.117 73.0447 164.187 66.8511 163.699 61.5961M163.699 61.5961C163.553 60.0275 163.18 58.5426 162.527 57.2347C161.089 54.3506 161.98 57.213 163.699 61.5961ZM163.699 61.5961C165.565 66.3538 168.407 72.9031 170.308 75.8391C174.307 82.0186 175.663 81.4266 181.08 80.3402M190.507 49.2827C182.261 49.2827 178.095 54.9655 184.073 62.1858C188.228 67.205 193.601 69.1457 194.317 75.9158M194.317 75.9158C194.369 76.4132 194.397 76.9367 194.397 77.4895C194.397 82.8543 189.908 84.2722 185.345 82.3656C183.744 81.6969 187.831 79.8978 189.31 78.9898C190.92 78.0009 192.617 76.9874 194.317 75.9158ZM194.317 75.9158C199.807 72.454 205.327 68.3849 208.051 62.5718M208.051 62.5718C208.315 62.0097 208.552 61.4312 208.76 60.8355C209.756 57.9935 212.136 34.0376 208.012 33.0038C206.615 32.6534 207.057 56.6501 207.264 58.1348C207.465 59.5705 207.725 61.0616 208.051 62.5718ZM208.051 62.5718C209.227 68.0109 211.261 73.6984 214.446 77.9396C218.543 83.3954 220.648 76.2561 222.825 73.5885M195.893 50.6329C203.48 50.6329 211.288 48.9347 218.785 47.9323M221.478 76.2892C224.12 70.3283 228.479 64.0524 229.408 57.5347C230.248 51.6404 231.69 52.625 238.984 53.6338C245.9 54.5904 243.076 68.2923 243.846 73.4385C245.732 86.0431 249.664 83.943 257.836 77.6395M273.995 61.4356C264.711 52.1259 257.903 66.6163 260.23 75.314C263.719 88.3566 273.873 70.9768 273.995 64.7364C274.014 63.7402 273.63 60.9038 274.294 63.6862C275.616 69.2299 277.467 75.4812 281.326 79.815C287.683 86.954 293.719 70.1021 294.717 65.7116C295.072 64.1508 295.295 62.0616 295.409 59.7024M295.409 59.7024C295.988 47.728 293.765 28.7969 291.8 36.6797C290.259 42.861 292.818 51.985 295.409 59.7024ZM295.409 59.7024C296.461 62.8342 297.518 65.7344 298.308 68.1122C299.435 71.503 300.918 77.4254 303.919 79.74C308.804 83.508 314.337 74.9943 317.085 72.2382M286.114 50.6331C282.594 50.6331 293.119 49.8875 296.587 49.2828C298.621 48.9281 307.165 46.0123 302.273 49.2828M314.392 73.5887C316.262 71.714 317.946 69.9093 319.03 67.4372C320.224 64.7163 320.903 57.8792 321.125 64.4365C321.372 71.7382 328.788 89.8682 334.591 76.2894M317.086 49.2827C317.468 49.2827 318.02 49.2686 318.517 49.1831M318.517 49.1831C319.497 49.0146 320.264 48.5688 319.106 47.4073C318.911 47.2118 318.96 48.5783 318.517 49.1831ZM318.517 49.1831C318.491 49.2192 318.462 49.2526 318.432 49.2827M339.978 61.4358C336.893 66.0757 333.615 72.2287 335.489 77.9397C339.522 90.2282 350.211 87.4562 352.995 76.2893C353.459 74.4262 353.205 70.7039 352.256 67.3664M352.256 67.3664C350.854 62.4329 347.933 58.3402 343.568 62.336C339.067 66.4575 346.023 67.7603 349.104 67.6622C350.163 67.6285 351.217 67.5299 352.256 67.3664ZM352.256 67.3664C357.763 66.5006 362.885 63.8167 366.311 59.3352C370.058 54.4339 366.886 71.7076 367.957 77.7897C368.607 81.4856 369.519 77.0474 369.902 75.8392C371.257 71.56 372.751 61.2829 377.607 59.3352C382.023 57.5641 388.484 77.2284 390.475 79.8902C400.155 92.8328 408.144 69.4846 410 62.7861M77.831 41.0125C77.831 31.0692 80.5242 80.6628 80.5242 70.7196M60.3256 41.0123C58.7787 41.0123 63.1639 39.7381 64.6646 39.3619C72.346 37.4362 83.7083 32.5671 91.2971 35.611M67.0584 81.5221C74.7662 79.9763 83.8478 77.1839 91.2969 80.1718M94.2466 79.5938C96.4517 76.6455 98.6879 73.6277 100.727 70.4881M100.727 70.4881C103.17 66.7263 105.33 62.7897 106.815 58.5888C108.886 52.7276 110.256 37.0245 102.326 34.1329C93.2452 30.8216 94.9882 53.9643 100.727 70.4881ZM100.727 70.4881C105.07 82.9937 111.702 91.7081 117.662 82.2945C119.169 79.9147 121.61 75.4049 124.009 70.0454M124.009 70.0454C129.568 57.6242 134.899 40.6396 127.836 35.0331C122.058 30.4462 117.658 40.3269 117.438 44.3353C117.033 51.7122 119.16 62.3523 124.009 70.0454ZM124.009 70.0454C126.564 74.0994 129.876 77.3351 133.971 78.8436C138.719 80.5925 145.465 78.1705 148.11 74.1925" stroke="#132FBA" stroke-width="4" stroke-linecap="round" stroke-linejoin="round"/>
<path d="M413.991 39.3915C413.991 37.0857 413.67 38.6754 413.843 39.6033M413.843 39.6033C413.859 39.6879 413.879 39.7671 413.903 39.8373M413.843 39.6033C413.555 39.1114 413.396 38.4336 413.438 37.9429M413.843 39.6033C413.973 39.8254 414.13 40.0097 414.307 40.1216M413.903 39.8373C413.965 40.0126 414.056 40.1319 414.187 40.1413M413.903 39.8373C413.121 38.938 413.095 38.3222 413.438 37.9429M413.903 39.8373C413.989 39.9352 414.083 40.0366 414.187 40.1413M414.187 40.1413C414.223 40.1439 414.263 40.1378 414.307 40.1216M414.187 40.1413C414.195 40.15 414.204 40.1588 414.213 40.1675C414.877 40.8321 415.372 40.5135 415.673 39.8129M414.307 40.1216C414.574 40.022 414.969 39.5415 415.543 38.3937C415.703 38.0729 415.79 37.7982 415.818 37.5682M414.307 40.1216C414.511 40.251 414.741 40.2839 414.989 40.1675C415.246 40.0465 415.473 39.9282 415.673 39.8129M415.818 37.5682C415.964 36.36 414.49 36.3871 413.603 37.4514C413.509 37.5639 413.456 37.7369 413.438 37.9429M415.818 37.5682C415.883 37.5848 415.947 37.6033 416.008 37.6235M415.818 37.5682C414.98 37.3543 413.89 37.4434 413.438 37.9429M415.673 39.8129C417.504 38.7556 417.013 37.9532 416.008 37.6235M415.673 39.8129C415.923 39.2315 416.039 38.3872 416.008 37.6235M416.008 37.6235C415.934 35.771 414.994 34.3931 412.993 38.3937M427.959 33.405C427.959 33.6586 427.982 33.9057 428.024 34.1409M428.024 34.1409C428.222 35.2663 428.835 36.118 429.319 36.0937M428.024 34.1409C428.316 33.4201 428.982 32.8502 429.449 33.0352M428.024 34.1409C427.67 35.0142 427.865 36.1088 429.626 36.3498M429.319 36.0937C429.672 36.0759 429.955 35.5906 429.955 34.4027C429.955 33.9102 429.882 33.5663 429.764 33.3424M429.319 36.0937C429.161 35.8617 429.035 35.481 428.961 35.0657M429.319 36.0937C429.378 36.1817 429.443 36.2484 429.511 36.2874C429.551 36.3099 429.589 36.3307 429.626 36.3498M429.764 33.3424C429.679 33.1821 429.571 33.0832 429.449 33.0352M429.764 33.3424C430.392 33.8055 431.077 35.8584 430.542 36.3953M429.764 33.3424C429.373 33.0546 429.003 33.3807 428.961 35.0657M429.449 33.0352C429.503 33.0371 429.56 33.0491 429.622 33.0724C431.067 33.6141 432.957 36.2943 430.542 36.3953M429.449 33.0352C428.885 33.015 428.793 34.1286 428.961 35.0657M429.626 36.3498C429.856 36.3813 430.113 36.3982 430.398 36.3982C430.448 36.3982 430.496 36.3972 430.542 36.3953M429.626 36.3498C430.081 36.5834 430.373 36.5655 430.542 36.3953M428.961 35.0657C428.958 35.1718 428.957 35.2834 428.957 35.4005M410 50.3668C414.668 55.0353 422.137 58.8346 428.957 57.1294C434.279 55.7991 442.926 48.4049 442.926 42.3848" stroke="#312F2F" stroke-width="4" stroke-linecap="round" stroke-linejoin="round"/>
</svg>
