<svg width="509" height="120" viewBox="0 0 509 120" fill="none" xmlns="http://www.w3.org/2000/svg">
<path d="M147.416 59.659C147.416 65.6785 149.256 91.0114 159.385 77.5883C162.117 73.9687 164.187 67.775 163.699 62.5201M163.699 62.5201C163.553 60.9515 163.18 59.4665 162.527 58.1586C161.089 55.2745 161.98 58.137 163.699 62.5201ZM163.699 62.5201C165.565 67.2778 168.407 73.8271 170.308 76.7631C174.307 82.9426 175.663 82.3506 181.08 81.2642M190.507 50.2067C182.261 50.2067 178.095 55.8894 184.073 63.1097C188.228 68.129 193.601 70.0696 194.317 76.8397M194.317 76.8397C194.369 77.3372 194.397 77.8607 194.397 78.4134C194.397 83.7782 189.908 85.1962 185.345 83.2896C183.744 82.6209 187.831 80.8218 189.31 79.9138C190.92 78.9248 192.617 77.9114 194.317 76.8397ZM194.317 76.8397C199.807 73.378 205.327 69.3088 208.051 63.4957M208.051 63.4957C208.315 62.9336 208.552 62.3552 208.76 61.7594C209.756 58.9174 212.136 34.9616 208.012 33.9277C206.615 33.5774 207.057 57.5741 207.264 59.0588C207.465 60.4944 207.725 61.9855 208.051 63.4957ZM208.051 63.4957C209.227 68.9348 211.261 74.6224 214.446 78.8635C218.543 84.3194 220.648 77.1801 222.825 74.5125M195.893 51.5569C203.48 51.5569 211.288 49.8586 218.785 48.8562M221.478 77.2132C224.12 71.2522 228.479 64.9764 229.408 58.4587C230.248 52.5644 231.69 53.5489 238.984 54.5577C245.9 55.5143 243.076 69.2162 243.846 74.3625C245.732 86.967 249.664 84.867 257.836 78.5635M273.995 62.3596C264.711 53.0498 257.903 67.5402 260.23 76.2379C263.719 89.2805 273.873 71.9007 273.995 65.6604C274.014 64.6641 273.63 61.8277 274.294 64.6101C275.616 70.1538 277.467 76.4051 281.326 80.739C287.683 87.878 293.719 71.0261 294.717 66.6356C295.072 65.0748 295.295 62.9856 295.409 60.6263M295.409 60.6263C295.988 48.652 293.765 29.7208 291.8 37.6036C290.259 43.7849 292.818 52.9089 295.409 60.6263ZM295.409 60.6263C296.461 63.7582 297.518 66.6583 298.308 69.0362C299.435 72.427 300.918 78.3494 303.919 80.664C308.804 84.432 314.337 75.9183 317.085 73.1622M286.114 51.557C282.594 51.557 293.119 50.8115 296.587 50.2067C298.621 49.8521 307.165 46.9362 302.273 50.2067M314.392 74.5127C316.262 72.6379 317.946 70.8333 319.03 68.3612C320.224 65.6402 320.903 58.8032 321.125 65.3605C321.372 72.6621 328.788 90.7921 334.591 77.2133M317.086 50.2067C317.468 50.2067 318.02 50.1926 318.517 50.1071M318.517 50.1071C319.497 49.9386 320.264 49.4928 319.106 48.3312C318.911 48.1358 318.96 49.5022 318.517 50.1071ZM318.517 50.1071C318.491 50.1431 318.462 50.1765 318.432 50.2067M339.978 62.3597C336.893 66.9997 333.615 73.1527 335.489 78.8637C339.522 91.1521 350.211 88.3801 352.995 77.2133C353.459 75.3501 353.205 71.6279 352.256 68.2904M352.256 68.2904C350.854 63.3569 347.933 59.2642 343.568 63.2599C339.067 67.3815 346.023 68.6843 349.104 68.5862C350.163 68.5525 351.217 68.4538 352.256 68.2904ZM352.256 68.2904C357.763 67.4246 362.885 64.7407 366.311 60.2592C370.058 55.3579 366.886 72.6316 367.957 78.7136C368.607 82.4095 369.519 77.9714 369.902 76.7632C371.257 72.4839 372.751 62.2069 377.607 60.2592C382.023 58.4881 388.484 78.1524 390.475 80.8141C400.155 93.7568 408.144 70.4086 410 63.71M77.831 41.9364C77.831 31.9932 80.5242 81.5867 80.5242 71.6435M60.3256 41.9362C58.7787 41.9362 63.1639 40.6621 64.6646 40.2859C72.346 38.3602 83.7083 33.491 91.2971 36.535M67.0584 82.4461C74.7662 80.9003 83.8478 78.1078 91.2969 81.0958M94.2466 80.5178C96.4517 77.5695 98.6879 74.5516 100.727 71.4121M100.727 71.4121C103.17 67.6502 105.33 63.7137 106.815 59.5127C108.886 53.6515 110.256 37.9484 102.326 35.0569C93.2452 31.7455 94.9882 54.8883 100.727 71.4121ZM100.727 71.4121C105.07 83.9177 111.702 92.632 117.662 83.2184C119.169 80.8387 121.61 76.3288 124.009 70.9694M124.009 70.9694C129.568 58.5482 134.899 41.5636 127.836 35.9571C122.058 31.3702 117.658 41.2509 117.438 45.2593C117.033 52.6361 119.16 63.2762 124.009 70.9694ZM124.009 70.9694C126.564 75.0234 129.876 78.259 133.971 79.7676C138.719 81.5165 145.465 79.0944 148.11 75.1165" stroke="#132FBA" stroke-width="4" stroke-linecap="round" stroke-linejoin="round"/>
<path d="M413.991 40.3154C413.991 38.0096 413.67 39.5993 413.843 40.5272M413.843 40.5272C413.859 40.6119 413.879 40.6911 413.903 40.7613M413.843 40.5272C413.555 40.0353 413.396 39.3576 413.438 38.8669M413.843 40.5272C413.973 40.7494 414.13 40.9336 414.307 41.0456M413.903 40.7613C413.965 40.9366 414.056 41.0559 414.187 41.0652M413.903 40.7613C413.121 39.8619 413.095 39.2461 413.438 38.8669M413.903 40.7613C413.989 40.8592 414.083 40.9605 414.187 41.0652M414.187 41.0652C414.223 41.0679 414.263 41.0617 414.307 41.0456M414.187 41.0652C414.195 41.074 414.204 41.0827 414.213 41.0915C414.877 41.7561 415.372 41.4374 415.673 40.7368M414.307 41.0456C414.574 40.946 414.969 40.4655 415.543 39.3177C415.703 38.9968 415.79 38.7221 415.818 38.4921M414.307 41.0456C414.511 41.1749 414.741 41.2078 414.989 41.0915C415.246 40.9704 415.473 40.8521 415.673 40.7368M415.818 38.4921C415.964 37.284 414.49 37.3111 413.603 38.3754C413.509 38.4879 413.456 38.6609 413.438 38.8669M415.818 38.4921C415.883 38.5088 415.947 38.5272 416.008 38.5474M415.818 38.4921C414.98 38.2782 413.89 38.3674 413.438 38.8669M415.673 40.7368C417.504 39.6796 417.013 38.8772 416.008 38.5474M415.673 40.7368C415.923 40.1555 416.039 39.3111 416.008 38.5474M416.008 38.5474C415.934 36.695 414.994 35.317 412.993 39.3177M427.959 34.3289C427.959 34.5825 427.982 34.8297 428.024 35.0649M428.024 35.0649C428.222 36.1902 428.835 37.0419 429.319 37.0176M428.024 35.0649C428.316 34.3441 428.982 33.7741 429.449 33.9592M428.024 35.0649C427.67 35.9381 427.865 37.0327 429.626 37.2738M429.319 37.0176C429.672 36.9999 429.955 36.5145 429.955 35.3267C429.955 34.8341 429.882 34.4903 429.764 34.2663M429.319 37.0176C429.161 36.7856 429.035 36.405 428.961 35.9896M429.319 37.0176C429.378 37.1057 429.443 37.1723 429.511 37.2113C429.551 37.2339 429.589 37.2547 429.626 37.2738M429.764 34.2663C429.679 34.1061 429.571 34.0072 429.449 33.9592M429.764 34.2663C430.392 34.7294 431.077 36.7824 430.542 37.3193M429.764 34.2663C429.373 33.9786 429.003 34.3046 428.961 35.9896M429.449 33.9592C429.503 33.9611 429.56 33.9731 429.622 33.9963C431.067 34.538 432.957 37.2183 430.542 37.3193M429.449 33.9592C428.885 33.939 428.793 35.0525 428.961 35.9896M429.626 37.2738C429.856 37.3053 430.113 37.3222 430.398 37.3222C430.448 37.3222 430.496 37.3212 430.542 37.3193M429.626 37.2738C430.081 37.5073 430.373 37.4895 430.542 37.3193M428.961 35.9896C428.958 36.0958 428.957 36.2073 428.957 36.3244M410 51.2908C414.668 55.9592 422.137 59.7585 428.957 58.0534C434.279 56.723 442.926 49.3289 442.926 43.3087" stroke="#EF3F36" stroke-width="4" stroke-linecap="round" stroke-linejoin="round"/>
</svg>
